<svg xmlns="http://www.w3.org/2000/svg" viewBox="0 0 200 200" width="200" height="200"><defs><radialGradient id="glow"><stop offset="0" stop-color="#ffb84a" stop-opacity="0.7"/><stop offset="1" stop-color="#ffb84a" stop-opacity="0"/></radialGradient><radialGradient id="sun"><stop offset="0" stop-color="#fff2b0"/><stop offset="0.6" stop-color="#ffb84a"/><stop offset="1" stop-color="#ff6a2a"/></radialGradient></defs><circle cx="100" cy="100" r="96" fill="url(#glow)"/><g transform="translate(100 100) scale(0.820)"><circle cx="0" cy="6" r="40" fill="url(#sun)" stroke="#14100c" stroke-width="4"/><path d="M60,40 Q90,-30 30,-66 Q-30,-96 -70,-40 Q-100,20 -50,60 Q0,96 50,64" fill="none" stroke="#14100c" stroke-width="28" stroke-linecap="round"/><path d="M60,40 Q90,-30 30,-66 Q-30,-96 -70,-40 Q-100,20 -50,60 Q0,96 50,64" fill="none" stroke="#3a1a5a" stroke-width="20" stroke-linecap="round"/><path d="M60,40 Q90,-30 30,-66 Q-30,-96 -70,-40 Q-100,20 -50,60 Q0,96 50,64" fill="none" stroke="#7a4aaa" stroke-width="4" stroke-dasharray="6 10"/><path d="M50,64 Q70,40 80,30 L44,22 Z" fill="#3a1a5a" stroke="#14100c" stroke-width="4"/><path d="M50,64 Q60,80 40,90 L30,52 Z" fill="#3a1a5a" stroke="#14100c" stroke-width="4"/><path d="M45,28 L48,38 L51,28 Z" fill="#f5ecd6" stroke="#14100c" stroke-width="1.5"/><path d="M56,28 L59,38 L62,28 Z" fill="#f5ecd6" stroke="#14100c" stroke-width="1.5"/><path d="M67,28 L70,38 L73,28 Z" fill="#f5ecd6" stroke="#14100c" stroke-width="1.5"/><circle cx="66" cy="44" r="5" fill="#c44dff" stroke="#14100c" stroke-width="2"/><path d="M-60,-62 L-72,-80 L-50,-70 Z M-80,-30 L-100,-36 L-84,-18 Z" fill="#c44dff" stroke="#14100c" stroke-width="2"/></g></svg>
