<svg xmlns="http://www.w3.org/2000/svg" viewBox="0 0 200 200" width="200" height="200"><defs></defs><g transform="translate(100 106) scale(0.820)"><path d="M30,76 Q-40,70 -20,40 Q0,14 -10,-16" fill="none" stroke="#14100c" stroke-width="30" stroke-linecap="round"/><path d="M30,76 Q-40,70 -20,40 Q0,14 -10,-16" fill="none" stroke="#7a9a4a" stroke-width="22" stroke-linecap="round"/><path d="M-16,52 L-2,46 M-14,30 L0,26 M-8,8 L6,4" stroke="#4a6a2a" stroke-width="4"/><path d="M30,76 L44,70 L46,80 L58,74 L58,86 L44,86 Z" fill="#d9c8a0" stroke="#14100c" stroke-width="4"/><ellipse cx="-10" cy="-30" rx="28" ry="22" fill="#7a9a4a" stroke="#14100c" stroke-width="4"/><rect x="-40" y="-40" width="60" height="12" rx="4" fill="#1c1410"/><circle cx="-21" cy="-34" r="4" fill="#f9ae4b" stroke="#14100c" stroke-width="2"/><circle cx="1" cy="-34" r="4" fill="#f9ae4b" stroke="#14100c" stroke-width="2"/><path d="M-36,-20 Q-10,-8 18,-20 L4,6 Z" fill="#c2412f" stroke="#14100c" stroke-width="4"/><ellipse cx="-10" cy="-50" rx="42" ry="8" fill="#6a4426" stroke="#14100c" stroke-width="4"/><path d="M-28,-52 Q-26,-82 -10,-78 Q6,-82 8,-52 Z" fill="#6a4426" stroke="#14100c" stroke-width="4"/><path d="M-8,-12 L-8,-4 M-12,-4 L-8,-4 L-4,0" stroke="#c2412f" stroke-width="2"/></g></svg>
