<svg xmlns="http://www.w3.org/2000/svg" viewBox="0 0 200 200" width="200" height="200"><defs></defs><g transform="translate(100 110) scale(0.820)"><path d="M-38,-34 L-50,-78 M-50,-60 L-66,-70 M-46,-46 L-30,-64 M-26,-34 L-18,-80 M-20,-62 L-6,-72" fill="none" stroke="#14100c" stroke-width="8" stroke-linecap="round"/><path d="M-38,-34 L-50,-78 M-50,-60 L-66,-70 M-46,-46 L-30,-64 M-26,-34 L-18,-80 M-20,-62 L-6,-72" fill="none" stroke="#d9c8a0" stroke-width="4" stroke-linecap="round"/><ellipse cx="-12" cy="-44" rx="8" ry="26" transform="rotate(25 -12 -44)" fill="#b08860" stroke="#14100c" stroke-width="4"/><ellipse cx="18" cy="28" rx="48" ry="34" fill="#b08860" stroke="#14100c" stroke-width="4"/><circle cx="62" cy="16" r="10" fill="#efe4cc" stroke="#14100c" stroke-width="4"/><ellipse cx="0" cy="58" rx="22" ry="8" fill="#9a7450" stroke="#14100c" stroke-width="4"/><circle cx="-34" cy="-6" r="26" fill="#b08860" stroke="#14100c" stroke-width="4"/><circle cx="-40" cy="-12" r="6" fill="#f2d16b" stroke="#14100c" stroke-width="2"/><circle cx="-56" cy="2" r="4" fill="#d07a8a"/><path d="M-60,10 Q-46,22 -30,14" fill="#5a2a2a" stroke="#14100c" stroke-width="3"/><path d="M-59,16 L-56,7 L-53,16 Z" fill="#f5ecd6" stroke="#14100c" stroke-width="1.5"/><path d="M-48,16 L-45,7 L-42,16 Z" fill="#f5ecd6" stroke="#14100c" stroke-width="1.5"/><path d="M-37,16 L-34,7 L-31,16 Z" fill="#f5ecd6" stroke="#14100c" stroke-width="1.5"/></g></svg>
