<svg xmlns="http://www.w3.org/2000/svg" viewBox="0 0 200 200" width="200" height="200"><defs><radialGradient id="glow"><stop offset="0" stop-color="#d344ca" stop-opacity="0.7"/><stop offset="1" stop-color="#d344ca" stop-opacity="0"/></radialGradient></defs><circle cx="100" cy="100" r="96" fill="url(#glow)"/><g transform="translate(100 100) scale(0.779)"><path d="M-60,90 L-56,-10 Q-50,-40 -20,-44 L20,-44 Q50,-40 56,-10 L60,90 Z" fill="#b8562e" stroke="#14100c" stroke-width="4"/><path d="M-58,10 Q0,0 58,12 M-59,40 Q0,30 59,42 M-60,66 Q0,60 60,70" fill="none" stroke="#7a3418" stroke-width="5"/><path d="M-58,24 Q0,16 58,26 M-60,54 Q0,46 60,56" fill="none" stroke="#e08a50" stroke-width="3"/><path d="M-56,-20 Q-96,0 -86,70 L-64,70 Q-70,20 -50,10 Z" fill="#a84a26" stroke="#14100c" stroke-width="4"/><path d="M56,-20 Q96,0 86,70 L64,70 Q70,20 50,10 Z" fill="#a84a26" stroke="#14100c" stroke-width="4"/><path d="M-28,-44 L-30,-80 Q0,-96 30,-80 L28,-44 Z" fill="#c8663a" stroke="#14100c" stroke-width="4"/><path d="M-22,-64 L-6,-60 M22,-64 L6,-60" stroke="#14100c" stroke-width="5"/><circle cx="-12" cy="-56" r="5" fill="#d344ca"/><circle cx="12" cy="-56" r="5" fill="#d344ca"/><path d="M44,-36 L44,-70 M44,-56 Q34,-56 34,-66 M44,-50 Q54,-50 54,-62" fill="none" stroke="#14100c" stroke-width="10" stroke-linecap="round"/><path d="M44,-36 L44,-70 M44,-56 Q34,-56 34,-66 M44,-50 Q54,-50 54,-62" fill="none" stroke="#5d8a3a" stroke-width="6" stroke-linecap="round"/></g></svg>
