<svg xmlns="http://www.w3.org/2000/svg" viewBox="0 0 200 200" width="200" height="200"><defs></defs><g transform="translate(100 104) scale(0.680)"><clipPath id="bottle"><path d="M-14,-62 L14,-62 L14,-36 Q56,-26 56,20 Q56,72 0,72 Q-56,72 -56,20 Q-56,-26 -14,-36 Z"/></clipPath><path d="M-14,-62 L14,-62 L14,-36 Q56,-26 56,20 Q56,72 0,72 Q-56,72 -56,20 Q-56,-26 -14,-36 Z" fill="#e8e2d0" fill-opacity="0.25"/><rect x="-60" y="35.0" width="120" height="45.0" fill="#8a6a3a" clip-path="url(#bottle)"/><path d="M-14,-62 L14,-62 L14,-36 Q56,-26 56,20 Q56,72 0,72 Q-56,72 -56,20 Q-56,-26 -14,-36 Z" fill="none" stroke="#14100c" stroke-width="4"/><rect x="-17" y="-80" width="34" height="20" rx="4" fill="#9a6a3c" stroke="#14100c" stroke-width="4"/><path d="M-38,4 Q-40,-16 -24,-24" fill="none" stroke="#ffffff" stroke-opacity="0.6" stroke-width="6" stroke-linecap="round"/></g></svg>
