<svg xmlns="http://www.w3.org/2000/svg" viewBox="0 0 200 200" width="200" height="200"><defs></defs><g transform="translate(108 86) rotate(-10) scale(0.943)"><path d="M-70,-30 Q-70,30 -10,30 Q40,30 40,-30" fill="none" stroke="#14100c" stroke-width="20" stroke-linecap="round"/><path d="M-70,-30 Q-70,30 -10,30 Q40,30 40,-30" fill="none" stroke="#a89474" stroke-width="12" stroke-linecap="round"/><path d="M-14,30 L40,52" stroke="#14100c" stroke-width="10" stroke-linecap="round"/><path d="M-14,30 L40,52" stroke="#8a7a62" stroke-width="5" stroke-linecap="round"/><path d="M58.0,56.0 L79.4,62.0 L57.4,59.1 Z" fill="#5d7a3a" stroke="#14100c" stroke-width="2.5"/><path d="M55.7,61.7 L66.6,81.0 L53.0,63.4 Z" fill="#5d7a3a" stroke="#14100c" stroke-width="2.5"/><path d="M50.0,64.0 L44.0,85.4 L46.9,63.4 Z" fill="#5d7a3a" stroke="#14100c" stroke-width="2.5"/><path d="M44.3,61.7 L25.0,72.6 L42.6,59.0 Z" fill="#5d7a3a" stroke="#14100c" stroke-width="2.5"/><path d="M42.0,56.0 L20.6,50.0 L42.6,52.9 Z" fill="#5d7a3a" stroke="#14100c" stroke-width="2.5"/><path d="M44.3,50.3 L33.4,31.0 L47.0,48.6 Z" fill="#5d7a3a" stroke="#14100c" stroke-width="2.5"/><path d="M50.0,48.0 L56.0,26.6 L53.1,48.6 Z" fill="#5d7a3a" stroke="#14100c" stroke-width="2.5"/><path d="M55.7,50.3 L75.0,39.4 L57.4,53.0 Z" fill="#5d7a3a" stroke="#14100c" stroke-width="2.5"/><circle cx="50" cy="56" r="10" fill="#8a7a62" stroke="#14100c" stroke-width="3"/><path d="M-66,-6 l-10,-8 l12,2 Z" fill="#5d7a3a" stroke="#14100c" stroke-width="2"/><path d="M-48,22 l-10,-8 l12,2 Z" fill="#5d7a3a" stroke="#14100c" stroke-width="2"/><path d="M24,18 l-10,-8 l12,2 Z" fill="#5d7a3a" stroke="#14100c" stroke-width="2"/></g></svg>
