<svg xmlns="http://www.w3.org/2000/svg" viewBox="0 0 200 200" width="200" height="200"><defs><radialGradient id="glow"><stop offset="0" stop-color="#8fd3ff" stop-opacity="0.7"/><stop offset="1" stop-color="#8fd3ff" stop-opacity="0"/></radialGradient></defs><circle cx="100" cy="100" r="96" fill="url(#glow)"/><g transform="translate(100 100) rotate(25) scale(0.780)"><rect x="-7" y="-50" width="14" height="128" rx="5" fill="#6a4426" stroke="#14100c" stroke-width="4"/><path d="M-6,-64 L-6,-40 L-70,-26 L-82,-36 Z" fill="#c8743a" stroke="#14100c" stroke-width="4"/><path d="M6,-64 L32,-66 L32,-38 L6,-40 Z" fill="#c8743a" stroke="#14100c" stroke-width="4"/><rect x="-11" y="-70" width="22" height="36" rx="3" fill="#a85a2a" stroke="#14100c" stroke-width="4"/><path d="M-70,-30 L-20,-40" stroke="#f0a870" stroke-width="3"/><path d="M-84,-36 L-92,-54 L-80,-56 L-88,-74" fill="none" stroke="#8fd3ff" stroke-width="6.6000000000000005" stroke-opacity="0.35" stroke-linejoin="round"/><path d="M-84,-36 L-92,-54 L-80,-56 L-88,-74" fill="none" stroke="#e8f6ff" stroke-width="3" stroke-linejoin="round" stroke-linecap="round"/><path d="M-78,-28 L-96,-20 L-88,-12" fill="none" stroke="#8fd3ff" stroke-width="5.5" stroke-opacity="0.35" stroke-linejoin="round"/><path d="M-78,-28 L-96,-20 L-88,-12" fill="none" stroke="#e8f6ff" stroke-width="2.5" stroke-linejoin="round" stroke-linecap="round"/></g></svg>
